<?xml version="1.0" encoding="UTF-8"?>
<svg width="692px" height="370px" viewBox="0 0 692 370" version="1.1" xmlns="http://www.w3.org/2000/svg" xmlns:xlink="http://www.w3.org/1999/xlink">
    <!-- Generator: Sketch 64 (93537) - https://sketch.com -->
    <title>logo extendido</title>
    <desc>Created with Sketch.</desc>
    <g id="Page-1" stroke="none" stroke-width="1" fill="none" fill-rule="evenodd">
        <g id="Mesa-de-trabajo-1" transform="translate(-187.000000, -75.000000)">
            <g id="logo" transform="translate(183.000000, 75.000000)">
                <g id="logo-extendido" transform="translate(4.000000, 0.000000)">
                    <g id="textos" transform="translate(330.000000, 85.000000)">
                        <line x1="0.5" y1="183.5" x2="359.5" y2="183.5" id="Line" stroke="#9A151A" stroke-width="5" stroke-linecap="square"></line>
                        <text id="ASOCIACIÓN-ESPAÑOLA" font-family="DINAlternate-Bold, DIN Alternate" font-size="37" font-weight="bold" letter-spacing="0.569230769" fill="#504D3C">
                            <tspan x="0" y="35">ASOCIACIÓN</tspan>
                            <tspan x="0" y="78">ESPAÑOLA</tspan>
                            <tspan x="0" y="121">DE DENOMINACIONES</tspan>
                            <tspan x="0" y="164">DE ORIGEN</tspan>
                        </text>
                    </g>
                    <g id="logo">
                        <g transform="translate(0.429000, 0.697184)">
                            <path d="M52.369,174.744816 C53.334,149.743806 58.38899,130.581826 67.534,117.253816 C76.68001,103.928826 89.37401,97.1998163 105.61101,97.0728163 C121.442,97.2558163 133.71101,104.091816 142.41499,117.581826 C151.119,131.071816 155.532,150.125816 155.653,174.744816 C155.532,200.991816 150.90001,221.366816 141.76,235.869806 C132.62001,250.371816 119.69701,257.728806 102.99199,257.941826 C86.87001,257.776816 74.38399,251.049826 65.534,237.760826 C56.685,224.469806 52.19901,205.596826 52.078,181.143816 C52.02899,179.155816 52.127,177.022816 52.369,174.744816 Z M-1.42108547e-14,178.816826 C0.168,198.078816 4.648,215.115806 13.437,229.928826 C22.226,244.740806 34.313,256.369806 49.69701,264.814806 C65.08099,273.259816 82.748,277.562826 102.70201,277.722826 C122.855,277.553826 140.73601,273.075826 156.343,264.286826 C171.94899,255.498826 184.226,243.414816 193.17299,228.032826 C202.12099,212.651816 206.68099,194.985826 206.85799,175.033816 C206.70299,155.687806 202.35701,138.658816 193.81899,123.943826 C185.282,109.229816 173.47899,97.7158063 158.40999,89.4028223 C143.343,81.0888113 125.937,76.8578093 106.192,76.7108213 C85.648,76.8878233 67.41901,81.3818113 51.507,90.1888183 C35.595,98.9958063 23.077,111.052816 13.954,126.356816 C4.83,141.662816 0.179,159.148806 -1.42108547e-14,178.816826 Z" id="Fill-2" fill="#504D3C"></path>
                            <path d="M181.01299,6.96481926 L167.58699,0.00281326159 C164.78899,8.14781726 160.985,14.6198173 156.174,19.4188133 C151.36299,24.2168173 146.21599,26.6728193 140.735,26.7838193 C135.59902,26.6168193 130.29601,24.9428153 124.82399,21.7618163 C119.35201,18.5808163 113.91399,14.8988173 108.511,10.7148193 C103.19499,6.75281326 98.386,3.96381926 94.07701,2.34581526 C89.769,0.726820262 85.62999,-0.0531867384 81.657,0.00281326159 C70.80501,0.201818262 60.959,4.48881326 52.12,12.8658203 C43.28101,21.2408203 36.12,32.5108163 30.638,46.6698133 L44.064,53.6318113 C46.862,45.4838163 50.66499,39.0008143 55.47701,34.1828133 C60.288,29.3638133 65.433,26.8978173 70.91701,26.7838193 C76.05199,26.9538173 81.355,28.6398143 86.82701,31.8388193 C92.29799,35.0388163 97.73601,38.7328163 103.14,42.9198133 C108.455,46.8808193 113.265,49.6708123 117.57301,51.2898163 C121.881,52.9078123 126.02101,53.6878113 129.993,53.6318113 C140.84599,53.4328213 150.691,49.1458183 159.53099,40.7688193 C168.37001,32.3918133 175.53001,21.1258143 181.01299,6.96481926 Z" id="Fill-4" fill="#AD1707"></path>
                        </g>
                        <g id="españa" transform="translate(4.396880, 339.465000)" fill="#AD1707">
                            <path d="M192.32013,11.82501 L192.35413,11.82501 C192.35513,11.87799 192.36911,12.11999 192.39511,12.55401 C192.42011,12.987 192.45111,13.29599 192.48612,13.48199 L195.00412,21.298 L189.63712,21.298 L192.22113,13.48199 C192.26911,13.29599 192.29813,12.987 192.30811,12.55401 C192.31912,12.11999 192.32312,11.87799 192.32013,11.82501 Z M197.35712,29.30999 L201.33411,29.30999 L193.77911,6.62399 L191.02811,6.62399 L183.40711,29.30999 L187.15112,29.30999 L188.77512,24.20901 L195.79913,24.20901 L197.35712,29.30999 Z" id="Fill-10"></path>
                            <path d="M158.95413,29.30999 L161.83313,29.30999 L161.83313,6.62399 L158.45813,6.62399 L158.45813,21.66299 C158.45813,21.86001 158.46613,22.095 158.48212,22.371 C158.49811,22.647 158.52313,22.87399 158.55713,23.05401 L158.52313,23.05401 C158.46411,22.846 158.40912,22.61599 158.36212,22.363 C158.31412,22.10901 158.23511,21.888 158.12613,21.69699 L148.05011,6.62399 L145.27011,6.62399 L145.27011,29.30999 L148.67813,29.30999 L148.67813,14.44201 C148.67511,14.27401 148.65613,14.05401 148.62113,13.78 C148.58511,13.50399 148.54913,13.28399 148.51413,13.11599 L148.54611,13.11599 C148.59613,13.33801 148.66113,13.56701 148.74512,13.80301 C148.82712,14.04199 148.92813,14.25299 149.04312,14.44201 L158.95413,29.30999 Z M158.68912,2.251 L158.68912,-2.84217094e-14 C158.33511,0.29101 157.89111,0.595 157.35413,0.91101 C156.81912,1.22601 156.3251,1.397 155.87213,1.42401 C155.09711,1.37799 154.33411,1.195 153.58011,0.876 C152.82611,0.55801 152.05411,0.376 151.26413,0.33001 C150.75812,0.36801 150.22812,0.60699 149.67313,1.05001 C149.11713,1.492 148.68613,1.914 148.38013,2.315 L148.38013,4.46801 C148.71613,4.17801 149.13913,3.88 149.65213,3.574 C150.16513,3.26699 150.64713,3.10101 151.09812,3.07599 C151.86212,3.12399 152.63812,3.31201 153.42713,3.639 C154.21512,3.96801 155.00812,4.155 155.80512,4.20199 C156.30911,4.169 156.83511,3.93899 157.38413,3.51199 C157.93311,3.08499 158.36713,2.665 158.68912,2.251 Z" id="Fill-9"></path>
                            <path d="M114.68411,11.82501 L114.71713,11.82501 C114.71811,11.87799 114.73212,12.11999 114.75913,12.55401 C114.78412,12.987 114.81513,13.29599 114.84912,13.48199 L117.36713,21.298 L112.00012,21.298 L114.58511,13.48199 C114.63211,13.29599 114.66113,12.987 114.67111,12.55401 C114.68213,12.11999 114.68512,11.87799 114.68411,11.82501 Z M119.72113,29.30999 L123.69611,29.30999 L116.14111,6.62399 L113.39212,6.62399 L105.77011,29.30999 L109.51413,29.30999 L111.13913,24.20901 L118.16312,24.20901 L119.72113,29.30999 Z" id="Fill-8"></path>
                            <path d="M77.61313,9.26999 C78.89212,9.27499 79.86313,9.61401 80.52612,10.285 C81.18811,10.957 81.52112,11.93399 81.52512,13.21399 C81.52512,14.471 81.2001,15.51199 80.55112,16.33801 C79.90012,17.16299 78.92111,17.59201 77.61313,17.621 L75.88812,17.621 L75.88812,9.26999 L77.61313,9.26999 Z M75.88812,20.26699 L77.61313,20.26699 C79.08713,20.264 80.42011,19.987 81.61011,19.43701 C82.80011,18.88601 83.74613,18.08001 84.4501,17.01599 C85.15311,15.953 85.51312,14.65301 85.53012,13.11401 C85.50614,11.647 85.11313,10.43301 84.35413,9.47299 C83.59412,8.513 82.61612,7.798 81.41913,7.32699 C80.22113,6.858 78.95212,6.62201 77.61313,6.62397764 L72.11511,6.62397764 L72.11511,29.30999 L75.88812,29.30999 L75.88812,20.26699 Z" id="Fill-7"></path>
                            <path d="M41.27911,29.77401 C42.77013,29.78799 44.13812,29.60199 45.38612,29.21801 C46.63312,28.833 47.63712,28.16699 48.39311,27.22 C49.15112,26.272 49.54012,24.96099 49.56111,23.285 C49.50812,21.458 48.97412,20.05301 47.96112,19.069 C46.94812,18.08401 45.77512,17.29901 44.44212,16.71301 C43.10812,16.126 41.93512,15.51699 40.92212,14.88501 C39.90912,14.25201 39.37512,13.37399 39.32211,12.25299 C39.33911,11.36599 39.58212,10.68899 40.04813,10.21701 C40.51512,9.746 41.10312,9.42401 41.81212,9.25 C42.52312,9.07699 43.25012,8.99499 43.99712,9.005 C44.86212,9.009 45.72612,9.08401 46.59012,9.233 C47.45412,9.38101 48.30013,9.582 49.13011,9.83401 L49.13011,6.95401 C48.19412,6.64401 47.21312,6.42901 46.18712,6.306 C45.16312,6.182 44.15712,6.12201 43.16812,6.12799 C41.81012,6.12301 40.53912,6.34799 39.35912,6.79901 C38.17912,7.251 37.22012,7.95001 36.48612,8.897 C35.75111,9.846 35.37212,11.06302 35.35011,12.55099 C35.40411,14.28299 35.94112,15.64401 36.96112,16.63299 C37.98113,17.621 39.16112,18.42501 40.50311,19.044 C41.84412,19.664 43.02512,20.285 44.04411,20.90899 C45.06412,21.53399 45.60112,22.34701 45.65512,23.35199 C45.63812,24.35699 45.38112,25.13 44.88312,25.668 C44.38413,26.207 43.74613,26.57699 42.96912,26.77801 C42.19013,26.97699 41.37212,27.07199 40.51512,27.06201 C39.60413,27.05999 38.70412,26.97299 37.81612,26.802 C36.93012,26.62899 36.06313,26.38501 35.21813,26.069 L35.21813,28.849 C36.17912,29.27801 37.16812,29.544 38.18411,29.64599 C39.20113,29.74899 40.23212,29.79199 41.27911,29.77401 Z" id="Fill-6"></path>
                            <polygon id="Fill-5" points="-1.42108547e-14 29.30981 13.48189 29.30981 13.48189 26.56494 3.77315 26.56494 3.77315 19.37255 10.9307 19.37255 10.9307 16.52877 3.77315 16.52877 3.77315 9.33639 13.51532 9.33639 13.51532 6.62356 -1.42108547e-14 6.62356"></polygon>
                        </g>
                        <g id="origen" transform="translate(2.325954, 312.509000)" fill="#504D3C">
                            <path d="M200.198036,17.36301 L201.935036,17.36301 L201.935036,0.349 L199.726046,0.349 L199.726046,12.54599 C199.728036,12.67099 199.737036,12.801 199.757056,12.93201 C199.778046,13.06299 199.800056,13.19101 199.826056,13.31601 L199.776036,13.31601 C199.762056,13.21601 199.735046,13.07501 199.693056,12.89701 C199.651036,12.719 199.604036,12.58499 199.552036,12.49701 L191.549046,0.349 L189.836036,0.349 L189.836036,17.36301 L192.070046,17.36301 L192.070046,5.068 C192.064056,4.98001 192.038056,4.84601 191.989046,4.668 C191.940036,4.48999 191.901036,4.35001 191.871036,4.249 L191.921056,4.249 C191.946046,4.34601 191.976046,4.469 192.014046,4.61801 C192.050056,4.76801 192.095036,4.88501 192.144046,4.969 L200.198036,17.36301 Z" id="Fill-19"></path>
                            <polygon id="Fill-18" points="152.139716 17.36258 161.902806 17.36258 161.902806 15.60141 154.473546 15.6265 154.473546 9.61148 159.890846 9.61148 159.890846 7.80155 154.473546 7.82663 154.473546 2.10977 161.828956 2.10977 161.828956 0.3486 152.139716 0.3486"></polygon>
                            <path d="M118.616036,17.736 C119.529056,17.746 120.437046,17.694 121.343056,17.57999 C122.249056,17.46701 123.121036,17.22901 123.957036,16.86801 L123.957036,7.926 L117.894046,7.926 L117.894046,9.935 L121.649056,9.935 L121.649056,15.55301 C121.289036,15.664 120.922036,15.745 120.549046,15.79801 C120.177036,15.849 119.796056,15.87601 119.412056,15.87601 C118.055056,15.85599 116.934056,15.52201 116.052036,14.86899 C115.170046,14.215 114.516056,13.357 114.086036,12.29401 C113.657046,11.22901 113.443056,10.07099 113.445046,8.819 C113.436036,7.55899 113.608036,6.405 113.962036,5.35901 C114.316046,4.31101 114.906036,3.47 115.729036,2.836 C116.553046,2.20301 117.663056,1.87699 119.063056,1.85999 C119.685036,1.866 120.301056,1.92301 120.910036,2.03501 C121.518036,2.146 122.120056,2.27799 122.717046,2.43201 L122.717046,0.496 C122.033056,0.34601 121.339056,0.22599 120.636056,0.137 C119.933046,0.04801 119.226046,0.00199 118.516056,-2.84217094e-14 C116.773046,0.02301 115.345036,0.443 114.234046,1.26401 C113.122046,2.08499 112.303046,3.16699 111.773046,4.51499 C111.245056,5.862 110.983036,7.33798 110.987976,8.943 C110.989046,10.50601 111.276036,11.95099 111.850036,13.276 C112.423036,14.60199 113.275056,15.67099 114.407046,16.483 C115.538056,17.29599 116.941046,17.71201 118.616036,17.736 Z" id="Fill-16"></path>
                            <polygon id="Fill-14" points="81.0435836 0.348605 83.3509409 0.348605 83.3509409 17.362578 81.0435836 17.362578"></polygon>
                            <path d="M46.3360461,2.03501 C47.3640461,2.03601 48.1230561,2.29401 48.6140461,2.81101 C49.1040361,3.32801 49.3480461,4.09699 49.3440945,5.11701 C49.3450561,6.12799 49.1000361,6.901 48.6040361,7.43799 C48.1090461,7.97299 47.3530461,8.245 46.3360461,8.249 L44.3950361,8.249 L44.3950361,2.03501 L46.3360461,2.03501 Z M53.3410561,17.63599 L54.1120461,16.319 C53.7720561,16.263 53.5020461,16.18201 53.3010461,16.07801 C53.1020361,15.97199 52.9230361,15.80301 52.7700361,15.57501 L48.8970561,9.68701 C49.5430461,9.517 50.0860461,9.189 50.5300461,8.707 C50.9710461,8.22501 51.3070461,7.66599 51.5340461,7.03199 C51.7610561,6.39801 51.8740461,5.767 51.8760461,5.142 C51.8380461,3.517 51.3240361,2.31201 50.3300561,1.52301 C49.3370361,0.736 48.0870361,0.344 46.5840461,0.34895277 L42.0870361,0.34895277 L42.0870361,17.36301 L44.3950361,17.36301 L44.3950361,9.935 L46.7580461,9.935 L50.5600461,16.568 C50.8120461,16.986 51.1330461,17.28199 51.5190461,17.457 C51.9050461,17.63101 52.3310461,17.71601 52.7950461,17.711 C52.8730561,17.70999 52.9650461,17.70001 53.0680461,17.68299 C53.1730361,17.66599 53.2630461,17.651 53.3410561,17.637 L53.3410561,17.63599 Z" id="Fill-12"></path>
                            <path d="M7.1800461,1.76099 C8.4060361,1.79801 9.3820361,2.21799 10.1020361,3.02399 C10.8240361,3.82901 11.3390361,4.79901 11.6490561,5.93201 C11.9590461,7.06601 12.1100461,8.14402 12.1010461,9.16599 C12.1130461,10.14899 11.9840461,11.159 11.7180561,12.19501 C11.4520461,13.23099 10.9870461,14.108 10.3240361,14.827 C9.6590461,15.54401 8.7370461,15.91901 7.5540461,15.95001 C6.3400461,15.91901 5.3650361,15.53299 4.6280361,14.793 C3.8890461,14.055 3.3540361,13.146 3.0210461,12.069 C2.6900561,10.99399 2.5250461,9.935 2.5310361,8.89301 C2.5220561,7.905 2.6590461,6.86499 2.9420561,5.77399 C3.2230461,4.68201 3.7040461,3.75 4.3840561,2.97501 C5.0640461,2.20001 5.9960561,1.79599 7.1800461,1.76099 Z M7.3540361,17.711 C9.0950561,17.69101 10.4960561,17.29199 11.5590361,16.513 C12.6230561,15.73401 13.3940461,14.69199 13.8750461,13.387 C14.3560561,12.08301 14.5910561,10.63599 14.5840461,9.04199 C14.5860461,7.51499 14.3220361,6.06699 13.7930461,4.69901 C13.2640461,3.32999 12.4550561,2.21298 11.3690561,1.345 C10.2800461,0.47699 8.9010561,0.02799 7.2300461,0 C5.5680461,0.03101 4.2030561,0.487 3.1350461,1.36899 C2.0670561,2.249 1.2770461,3.37799 0.764046105,4.75 C0.251046105,6.124 -0.00394389532,7.56201 -7.10542736e-15,9.06699 C-0.000953895321,10.60501 0.267046105,12.026 0.802056105,13.32901 C1.3380461,14.63199 2.1490561,15.68201 3.2380461,16.48099 C4.3250461,17.27799 5.6980461,17.689 7.3540361,17.711 Z" id="Fill-11"></path>
                        </g>
                    </g>
                </g>
            </g>
        </g>
    </g>
</svg>